<?xml version="1.0" encoding="UTF-8"?>
<svg id="Layer_1" data-name="Layer 1" xmlns="http://www.w3.org/2000/svg" viewBox="0 0 2000 2000">
  <defs>
    <style>
      .cls-1, .cls-2 {
        fill: #fee056;
      }

      .cls-2, .cls-3 {
        stroke: #231f20;
        stroke-miterlimit: 10;
      }

      .cls-3 {
        fill: #231f20;
      }
    </style>
  </defs>
  <rect class="cls-2" x="500" y="500" width="1000" height="1000"/>
  <rect class="cls-3" x="738.4" y="809" width="523.21" height="382"/>
  <g>
    <path class="cls-1" d="m776.42,898.25v40.4h-19.23v-103.39h31.53c7.05,0,13.1.73,18.13,2.18,5.03,1.45,9.15,3.49,12.37,6.11,3.22,2.62,5.58,5.76,7.08,9.4,1.5,3.65,2.25,7.66,2.25,12.05,0,3.48-.51,6.77-1.54,9.87-1.03,3.1-2.5,5.91-4.43,8.44-1.93,2.53-4.31,4.74-7.15,6.65-2.84,1.91-6.07,3.43-9.69,4.58,2.43,1.38,4.53,3.36,6.29,5.93l25.88,38.18h-17.3c-1.67,0-3.09-.33-4.25-1-1.17-.67-2.16-1.62-2.97-2.86l-21.74-33.1c-.81-1.24-1.7-2.12-2.68-2.65-.98-.52-2.42-.79-4.33-.79h-8.22Zm0-13.8h12.01c3.62,0,6.78-.45,9.47-1.36,2.69-.9,4.91-2.16,6.65-3.75,1.74-1.6,3.04-3.49,3.9-5.68.86-2.19,1.29-4.6,1.29-7.22,0-5.24-1.73-9.27-5.18-12.08-3.46-2.81-8.74-4.22-15.84-4.22h-12.3v34.32Z"/>
    <path class="cls-1" d="m941.09,938.64h-14.87c-1.67,0-3.04-.42-4.11-1.25-1.07-.83-1.85-1.87-2.32-3.11l-7.72-21.09h-42.83l-7.72,21.09c-.38,1.1-1.13,2.1-2.25,3-1.12.91-2.49,1.36-4.11,1.36h-14.94l40.61-103.39h19.66l40.61,103.39Zm-66.92-39.04h32.96l-12.58-34.39c-.57-1.52-1.2-3.32-1.9-5.4-.69-2.07-1.37-4.33-2.04-6.76-.67,2.43-1.32,4.7-1.97,6.79-.64,2.1-1.28,3.93-1.89,5.51l-12.58,34.25Z"/>
    <path class="cls-1" d="m1019.16,914.26c1.05,0,1.95.41,2.72,1.22l7.58,8.22c-4.2,5.2-9.36,9.18-15.48,11.94-6.13,2.77-13.48,4.15-22.06,4.15-7.68,0-14.57-1.31-20.7-3.93-6.13-2.62-11.36-6.27-15.69-10.94-4.34-4.67-7.66-10.25-9.97-16.73-2.31-6.48-3.47-13.56-3.47-21.24s1.29-14.88,3.86-21.34c2.57-6.46,6.2-12.02,10.87-16.7,4.67-4.67,10.26-8.31,16.77-10.9,6.51-2.6,13.69-3.9,21.56-3.9s14.38,1.23,20.13,3.68c5.74,2.46,10.66,5.71,14.76,9.76l-6.44,8.94c-.38.57-.87,1.07-1.47,1.5-.6.43-1.42.64-2.47.64s-2.22-.43-3.36-1.29-2.6-1.79-4.36-2.79c-1.76-1-3.99-1.93-6.69-2.79-2.69-.86-6.11-1.29-10.26-1.29-4.86,0-9.33.85-13.41,2.54-4.08,1.69-7.58,4.11-10.51,7.26s-5.22,6.97-6.86,11.48c-1.64,4.5-2.47,9.57-2.47,15.19s.82,10.99,2.47,15.52c1.64,4.53,3.87,8.34,6.69,11.44,2.81,3.1,6.12,5.47,9.94,7.11,3.81,1.64,7.91,2.47,12.3,2.47,2.62,0,4.99-.14,7.11-.43,2.12-.29,4.08-.74,5.86-1.36,1.79-.62,3.48-1.42,5.08-2.4,1.6-.98,3.18-2.18,4.75-3.61.48-.43.98-.77,1.5-1.04.52-.26,1.1-.39,1.72-.39Z"/>
    <path class="cls-1" d="m1065.64,938.64h-19.31v-103.39h19.31v103.39Z"/>
    <path class="cls-1" d="m1179.75,938.64h-14.87c-1.67,0-3.04-.42-4.11-1.25-1.07-.83-1.85-1.87-2.32-3.11l-7.72-21.09h-42.83l-7.72,21.09c-.38,1.1-1.13,2.1-2.25,3-1.12.91-2.49,1.36-4.11,1.36h-14.94l40.61-103.39h19.66l40.61,103.39Zm-66.92-39.04h32.96l-12.58-34.39c-.57-1.52-1.2-3.32-1.9-5.4-.69-2.07-1.37-4.33-2.04-6.76-.67,2.43-1.32,4.7-1.97,6.79-.64,2.1-1.28,3.93-1.89,5.51l-12.58,34.25Z"/>
    <path class="cls-1" d="m1209.64,922.77h41.4v15.87h-60.63v-103.39h19.23v87.52Z"/>
    <path class="cls-1" d="m817.93,1022.49c0,5.3-.88,10.17-2.65,14.6-1.77,4.43-4.25,8.25-7.45,11.45-3.2,3.2-7.05,5.68-11.55,7.45-4.5,1.77-9.48,2.65-14.95,2.65h-27.6v-72.3h27.6c5.47,0,10.45.89,14.95,2.67,4.5,1.78,8.35,4.27,11.55,7.45,3.2,3.18,5.68,6.99,7.45,11.42,1.77,4.43,2.65,9.3,2.65,14.6Zm-13.75,0c0-3.97-.53-7.52-1.6-10.68-1.07-3.15-2.58-5.82-4.55-8-1.97-2.18-4.36-3.86-7.18-5.02-2.82-1.17-5.99-1.75-9.52-1.75h-14.05v50.9h14.05c3.53,0,6.71-.58,9.52-1.75,2.82-1.17,5.21-2.84,7.18-5.02,1.97-2.18,3.48-4.85,4.55-8,1.07-3.15,1.6-6.71,1.6-10.67Z"/>
    <path class="cls-1" d="m843.63,1058.64h-13.5v-72.3h13.5v72.3Z"/>
    <path class="cls-1" d="m923.43,1058.64h-10.4c-1.17,0-2.12-.29-2.88-.88-.75-.58-1.29-1.31-1.62-2.17l-5.4-14.75h-29.95l-5.4,14.75c-.27.77-.79,1.47-1.58,2.1-.78.63-1.74.95-2.88.95h-10.45l28.4-72.3h13.75l28.4,72.3Zm-46.8-27.3h23.05l-8.8-24.05c-.4-1.07-.84-2.32-1.32-3.77-.48-1.45-.96-3.02-1.43-4.73-.47,1.7-.92,3.28-1.38,4.75-.45,1.47-.89,2.75-1.32,3.85l-8.8,23.95Z"/>
    <path class="cls-1" d="m944.32,1047.54h28.95v11.1h-42.4v-72.3h13.45v61.2Z"/>
    <path class="cls-1" d="m1047.92,1022.49c0,5.3-.88,10.21-2.65,14.73-1.77,4.52-4.25,8.42-7.45,11.72-3.2,3.3-7.05,5.88-11.55,7.73s-9.48,2.77-14.95,2.77-10.46-.92-14.97-2.77c-4.52-1.85-8.38-4.42-11.6-7.73-3.22-3.3-5.71-7.21-7.48-11.72-1.77-4.52-2.65-9.43-2.65-14.73s.88-10.21,2.65-14.73c1.77-4.52,4.26-8.42,7.48-11.73,3.22-3.3,7.08-5.88,11.6-7.73,4.52-1.85,9.51-2.77,14.97-2.77s10.45.93,14.95,2.8c4.5,1.87,8.35,4.44,11.55,7.72,3.2,3.28,5.68,7.18,7.45,11.7,1.77,4.52,2.65,9.42,2.65,14.73Zm-13.8,0c0-3.97-.52-7.52-1.58-10.68-1.05-3.15-2.56-5.82-4.52-8.02-1.97-2.2-4.36-3.88-7.17-5.05-2.82-1.17-5.99-1.75-9.53-1.75s-6.72.58-9.55,1.75c-2.83,1.17-5.24,2.85-7.23,5.05-1.98,2.2-3.51,4.88-4.57,8.02-1.07,3.15-1.6,6.71-1.6,10.68s.53,7.52,1.6,10.67c1.07,3.15,2.59,5.82,4.57,8,1.98,2.18,4.39,3.86,7.23,5.02,2.83,1.17,6.02,1.75,9.55,1.75s6.71-.58,9.53-1.75c2.82-1.17,5.21-2.84,7.17-5.02,1.97-2.18,3.48-4.85,4.52-8,1.05-3.15,1.58-6.71,1.58-10.67Z"/>
    <path class="cls-1" d="m1091.72,1048.74c3.03,0,5.67-.27,7.92-.83,2.25-.55,4.39-1.31,6.43-2.27v-13.15h-9.05c-.87,0-1.55-.24-2.05-.73-.5-.48-.75-1.08-.75-1.77v-7.6h24.05v29.25c-1.83,1.33-3.74,2.49-5.72,3.48-1.98.98-4.1,1.79-6.35,2.42-2.25.63-4.66,1.11-7.23,1.43-2.57.32-5.33.47-8.3.47-5.27,0-10.12-.92-14.55-2.75-4.43-1.83-8.27-4.38-11.5-7.65-3.23-3.27-5.76-7.17-7.57-11.7-1.82-4.53-2.73-9.48-2.73-14.85s.88-10.42,2.65-14.95c1.77-4.53,4.27-8.43,7.52-11.7,3.25-3.27,7.19-5.8,11.83-7.6,4.63-1.8,9.83-2.7,15.6-2.7s11.01.88,15.32,2.62c4.32,1.75,7.98,4.02,10.98,6.83l-3.9,6.1c-.77,1.23-1.78,1.85-3.05,1.85-.8,0-1.62-.27-2.45-.8-1.07-.63-2.16-1.27-3.27-1.9-1.12-.63-2.35-1.18-3.7-1.65s-2.87-.85-4.55-1.15c-1.68-.3-3.62-.45-5.83-.45-3.57,0-6.79.6-9.67,1.8-2.88,1.2-5.34,2.92-7.38,5.15-2.03,2.23-3.6,4.92-4.7,8.05-1.1,3.13-1.65,6.63-1.65,10.5,0,4.17.58,7.88,1.75,11.12,1.17,3.25,2.8,5.99,4.9,8.23,2.1,2.23,4.6,3.94,7.5,5.12,2.9,1.18,6.07,1.77,9.5,1.77Z"/>
    <path class="cls-1" d="m1159.92,1047.79c2.6,0,4.93-.43,6.98-1.3,2.05-.87,3.78-2.08,5.2-3.65,1.42-1.57,2.5-3.47,3.25-5.7.75-2.23,1.12-4.73,1.12-7.5v-43.3h13.45v43.3c0,4.3-.69,8.27-2.07,11.92-1.38,3.65-3.38,6.8-5.98,9.45s-5.75,4.72-9.45,6.2c-3.7,1.48-7.87,2.22-12.5,2.22s-8.8-.74-12.5-2.22c-3.7-1.48-6.84-3.55-9.42-6.2-2.58-2.65-4.57-5.8-5.95-9.45-1.38-3.65-2.07-7.62-2.07-11.92v-43.3h13.45v43.25c0,2.77.38,5.27,1.12,7.5.75,2.23,1.83,4.14,3.23,5.72,1.4,1.58,3.12,2.81,5.17,3.68,2.05.87,4.38,1.3,6.98,1.3Z"/>
    <path class="cls-1" d="m1249.22,986.34v10.7h-32.05v20.05h25.25v10.35h-25.25v20.45h32.05v10.75h-45.6v-72.3h45.6Z"/>
    <path class="cls-1" d="m793.67,1147.18c.63,0,1.18.24,1.63.73l4.56,4.95c-2.52,3.12-5.63,5.52-9.31,7.18-3.68,1.66-8.11,2.49-13.27,2.49-4.62,0-8.77-.79-12.45-2.36-3.68-1.58-6.83-3.77-9.44-6.58-2.61-2.81-4.61-6.16-6-10.06-1.39-3.9-2.09-8.16-2.09-12.77s.77-8.95,2.32-12.84c1.55-3.88,3.73-7.23,6.54-10.04s6.17-5,10.08-6.56c3.91-1.56,8.23-2.34,12.96-2.34s8.65.74,12.1,2.21c3.45,1.48,6.41,3.43,8.88,5.87l-3.87,5.38c-.23.34-.52.65-.88.9-.36.26-.85.39-1.48.39s-1.33-.26-2.02-.77-1.56-1.07-2.62-1.68-2.4-1.16-4.02-1.68c-1.62-.52-3.68-.77-6.17-.77-2.92,0-5.61.51-8.06,1.53-2.45,1.02-4.56,2.47-6.32,4.36s-3.14,4.19-4.13,6.9c-.99,2.71-1.48,5.76-1.48,9.14s.49,6.61,1.48,9.33c.99,2.72,2.33,5.02,4.02,6.88,1.69,1.86,3.68,3.29,5.98,4.28,2.29.99,4.76,1.48,7.4,1.48,1.58,0,3-.09,4.28-.26,1.28-.17,2.45-.44,3.53-.82,1.08-.37,2.09-.85,3.05-1.44.96-.59,1.91-1.31,2.86-2.17.29-.26.59-.47.9-.62.32-.16.66-.24,1.03-.24Z"/>
    <path class="cls-1" d="m868.23,1130.75c0,4.56-.76,8.78-2.28,12.66-1.52,3.88-3.66,7.25-6.41,10.08-2.75,2.84-6.06,5.05-9.93,6.64-3.87,1.59-8.16,2.39-12.86,2.39s-8.99-.8-12.88-2.39c-3.88-1.59-7.21-3.81-9.98-6.64-2.77-2.84-4.91-6.2-6.43-10.08-1.52-3.88-2.28-8.11-2.28-12.66s.76-8.78,2.28-12.66c1.52-3.88,3.66-7.25,6.43-10.08,2.77-2.84,6.09-5.05,9.98-6.64,3.88-1.59,8.18-2.39,12.88-2.39s8.99.8,12.86,2.41c3.87,1.61,7.18,3.82,9.93,6.64,2.75,2.82,4.89,6.18,6.41,10.06,1.52,3.88,2.28,8.11,2.28,12.66Zm-11.87,0c0-3.41-.45-6.47-1.35-9.18-.9-2.71-2.2-5.01-3.89-6.9-1.69-1.89-3.75-3.34-6.17-4.34-2.42-1-5.15-1.5-8.19-1.5s-5.78.5-8.21,1.5c-2.44,1-4.51,2.45-6.21,4.34-1.71,1.89-3.02,4.19-3.93,6.9-.92,2.71-1.38,5.77-1.38,9.18s.46,6.47,1.38,9.18c.92,2.71,2.23,5,3.93,6.88,1.71,1.88,3.78,3.32,6.21,4.32,2.44,1,5.17,1.5,8.21,1.5s5.77-.5,8.19-1.5c2.42-1,4.48-2.44,6.17-4.32,1.69-1.88,2.99-4.17,3.89-6.88.9-2.71,1.35-5.77,1.35-9.18Z"/>
    <path class="cls-1" d="m888.91,1152.3h24.9v9.55h-36.46v-62.18h11.57v52.63Z"/>
    <path class="cls-1" d="m933.37,1152.3h24.9v9.55h-36.46v-62.18h11.57v52.63Z"/>
    <path class="cls-1" d="m1005.48,1099.66v9.2h-27.56v17.24h21.71v8.9h-21.71v17.59h27.56v9.25h-39.22v-62.18h39.22Z"/>
    <path class="cls-1" d="m1058.24,1147.18c.63,0,1.18.24,1.63.73l4.56,4.95c-2.52,3.12-5.63,5.52-9.31,7.18-3.68,1.66-8.11,2.49-13.27,2.49-4.62,0-8.77-.79-12.45-2.36-3.68-1.58-6.83-3.77-9.44-6.58-2.61-2.81-4.61-6.16-6-10.06-1.39-3.9-2.09-8.16-2.09-12.77s.77-8.95,2.32-12.84c1.55-3.88,3.73-7.23,6.54-10.04s6.17-5,10.08-6.56c3.91-1.56,8.23-2.34,12.96-2.34s8.65.74,12.1,2.21c3.45,1.48,6.41,3.43,8.88,5.87l-3.87,5.38c-.23.34-.52.65-.88.9-.36.26-.85.39-1.48.39s-1.33-.26-2.02-.77-1.56-1.07-2.62-1.68-2.4-1.16-4.02-1.68c-1.62-.52-3.68-.77-6.17-.77-2.92,0-5.61.51-8.06,1.53-2.45,1.02-4.56,2.47-6.32,4.36s-3.14,4.19-4.13,6.9c-.99,2.71-1.48,5.76-1.48,9.14s.49,6.61,1.48,9.33c.99,2.72,2.33,5.02,4.02,6.88,1.69,1.86,3.68,3.29,5.98,4.28,2.29.99,4.76,1.48,7.4,1.48,1.58,0,3-.09,4.28-.26,1.28-.17,2.45-.44,3.53-.82,1.08-.37,2.09-.85,3.05-1.44.96-.59,1.91-1.31,2.86-2.17.29-.26.59-.47.9-.62.32-.16.66-.24,1.03-.24Z"/>
    <path class="cls-1" d="m1116.98,1099.66v9.5h-18.71v52.67h-11.57v-52.67h-18.79v-9.5h49.06Z"/>
    <path class="cls-1" d="m1137.36,1161.84h-11.61v-62.18h11.61v62.18Z"/>
    <path class="cls-1" d="m1145.23,1099.66h9.33c1,0,1.82.24,2.45.73.63.49,1.1,1.12,1.42,1.89l14.62,37.93c.49,1.23.95,2.59,1.4,4.06.44,1.48.87,3.03,1.27,4.67.66-3.3,1.48-6.21,2.45-8.73l14.58-37.93c.26-.66.72-1.26,1.38-1.81.66-.54,1.48-.82,2.45-.82h9.33l-25.11,62.18h-10.45l-25.11-62.18Z"/>
    <path class="cls-1" d="m1251.61,1099.66v9.2h-27.56v17.24h21.71v8.9h-21.71v17.59h27.56v9.25h-39.22v-62.18h39.22Z"/>
  </g>
</svg>